<svg xmlns="http://www.w3.org/2000/svg" version="1.1" xmlns:xlink="http://www.w3.org/1999/xlink" xmlns:svgjs="http://svgjs.com/svgjs" width="1460" height="560" preserveAspectRatio="none" viewBox="0 0 1460 560"><g mask="url(&quot;#SvgjsMask1357&quot;)" fill="none"><path d="M0,355.206C64.937,338.356,122.217,310.57,185.757,289.043C274.15,259.096,389.441,277.754,446.531,203.924C502.824,131.124,473.142,24.943,460.456,-66.204C447.72,-157.709,444.481,-264.625,373.144,-323.331C302.167,-381.741,194.017,-334.574,105.265,-358.501C19.484,-381.627,-52.261,-492.279,-135.178,-460.373C-220.279,-427.627,-207.4,-298.506,-254.133,-220.208C-290.191,-159.795,-352.909,-120.181,-377.557,-54.284C-406.315,22.602,-426.165,105.804,-405.817,185.33C-383.604,272.142,-342.767,370.135,-260.108,404.736C-177.01,439.521,-87.197,377.832,0,355.206" fill="rgba(251, 171, 115, 0.06)"></path>

<path d="M1460 1190.7440000000001C1578.204 1213.972 1705.492 1163.242 1798.403 1086.565 1887.281 1013.216 1905.135 889.9649999999999 1952.0140000000001 784.6949999999999 1998.374 680.59 2080.627 585.636 2072.085 471.996 2063.374 356.111 1985.96 257.875 1906.07 173.478 1828.66 91.69999999999999 1734.665 23.248000000000047 1624.636-0.6989999999999554 1518.459-23.807000000000016 1413.47 16.023000000000025 1308.307 43.38199999999995 1199.68 71.642 1077.079 79.79000000000002 1000.351 161.712 922.843 244.46699999999998 914.73 367.06 899.872 479.466 885.166 590.724 856.45 713.12 914.795 808.987 972.206 903.3199999999999 1107.027 905.14 1197.4859999999999 968.48 1293.349 1035.604 1345.169 1168.179 1460 1190.7440000000001" fill="rgba(251, 171, 115, 0.06)"></path>

</g><defs><mask id="SvgjsMask1357"><rect width="1460" height="560" fill="#ffffff"></rect></mask></defs></svg>